<?xml version="1.0" encoding="UTF-8"?>
<!DOCTYPE svg PUBLIC "-//W3C//DTD SVG 1.1//EN" "http://www.w3.org/Graphics/SVG/1.1/DTD/svg11.dtd">
<!-- Creator: CorelDRAW (Evaluation Version) -->
<svg xmlns="http://www.w3.org/2000/svg" xml:space="preserve" width="0.599992in" height="0.199992in" version="1.1" style="shape-rendering:geometricPrecision; text-rendering:geometricPrecision; image-rendering:optimizeQuality; fill-rule:evenodd; clip-rule:evenodd"
viewBox="0 0 599.99 199.99"
 xmlns:xlink="http://www.w3.org/1999/xlink"
 xmlns:xodm="http://www.corel.com/coreldraw/odm/2003">
 <defs>
  <style type="text/css">
   <![CDATA[
    .fil0 {fill:#2B2A29;fill-rule:nonzero}
   ]]>
  </style>
 </defs>
 <g id="Layer_x0020_1">
  <metadata id="CorelCorpID_0Corel-Layer"/>
  <path class="fil0" d="M376.39 18.38c0.51,4.72 0.56,10.21 0.15,16.47 -0.41,6.26 -1.33,12.99 -2.77,20.17 -1.44,7.19 -3.44,14.63 -6,22.32 -2.57,7.7 -5.75,15.32 -9.55,22.87 -3.8,7.54 -8.21,14.81 -13.24,21.79 -5.03,6.98 -10.72,13.34 -17.09,19.09 -4,3.59 -7.54,5.96 -10.62,7.08 -3.08,1.13 -5.7,1.31 -7.85,0.54 -2.15,-0.77 -3.85,-2.36 -5.08,-4.77 -1.23,-2.41 -1.95,-5.31 -2.16,-8.7 -0.2,-5.54 0.23,-10.91 1.31,-16.09 1.07,-5.18 2.49,-10.24 4.23,-15.17 -3.8,3.9 -7.67,7.42 -11.62,10.55 -3.95,3.13 -7.75,5.65 -11.39,7.54 -3.65,1.9 -7.01,3.03 -10.09,3.39 -3.08,0.36 -5.59,-0.28 -7.54,-1.93 -2.46,-2.05 -3.46,-5.16 -3,-9.31 0.46,-4.16 1.85,-8.88 4.16,-14.17 2.31,-5.29 5.21,-10.96 8.7,-17.02 3.49,-6.06 6.98,-11.98 10.47,-17.78 3.49,-5.8 6.72,-11.24 9.7,-16.32 2.98,-5.08 5.08,-9.37 6.31,-12.86 1.23,-3.49 1.31,-5.9 0.23,-7.24 -1.08,-1.33 -3.93,-1.18 -8.55,0.46 -2.67,1.33 -5.46,3.36 -8.39,6.08 -2.93,2.72 -5.49,5.7 -7.7,8.93 -2.2,3.23 -3.8,6.49 -4.77,9.78 -0.98,3.28 -0.9,6.16 0.23,8.62 1.03,0.62 1.54,1.46 1.54,2.54 0,1.08 -0.28,1.93 -0.85,2.54 -0.57,0.61 -1.31,0.77 -2.23,0.46 -0.93,-0.31 -1.85,-1.59 -2.77,-3.85 -0.93,-2.36 -1.26,-4.85 -1,-7.46 0.26,-2.62 0.92,-5.24 2,-7.85 1.08,-2.62 2.52,-5.21 4.31,-7.78 1.8,-2.57 3.72,-4.9 5.78,-7 2.05,-2.11 4.15,-4 6.31,-5.7 2.16,-1.7 4.21,-2.95 6.16,-3.78 2.06,-0.92 4.34,-1.61 6.85,-2.08 2.51,-0.46 4.87,-0.41 7.08,0.16 2.2,0.56 4.03,1.74 5.46,3.54 1.44,1.8 2.05,4.44 1.85,7.93 -0.2,2.98 -1.26,6.7 -3.15,11.16 -1.9,4.47 -4.24,9.29 -7.01,14.48 -2.77,5.18 -5.72,10.52 -8.85,16.01 -3.13,5.49 -5.93,10.78 -8.39,15.86 -2.46,5.08 -4.41,9.73 -5.85,13.94 -1.44,4.2 -1.8,7.65 -1.08,10.31 1.64,-0.41 3.75,-1.41 6.31,-3 2.56,-1.59 5.39,-3.62 8.47,-6.08 3.08,-2.46 6.23,-5.26 9.47,-8.39 3.23,-3.13 6.34,-6.44 9.31,-9.93 1.54,-3.28 3.03,-6.28 4.46,-9 1.44,-2.72 2.72,-5.16 3.85,-7.31 0.41,-1.03 1.39,-2.11 2.93,-3.23 1.54,-1.13 3.08,-1.93 4.62,-2.39 1.54,-0.46 2.8,-0.43 3.77,0.08 0.98,0.51 1.1,1.9 0.39,4.16 -1.03,2.46 -2.33,5.52 -3.93,9.16 -1.59,3.64 -3.26,7.59 -5,11.85 -1.75,4.26 -3.39,8.67 -4.93,13.24 -1.54,4.57 -2.77,9 -3.69,13.31 -0.93,4.31 -1.41,8.37 -1.46,12.17 -0.05,3.8 0.64,7.03 2.08,9.7 4.82,-2.57 9.57,-6.26 14.24,-11.09 4.67,-4.82 9.13,-10.42 13.39,-16.78 4.26,-6.36 8.16,-13.32 11.7,-20.86 3.54,-7.54 6.52,-15.32 8.93,-23.33 2.41,-8.01 4.21,-16.04 5.39,-24.09 1.18,-8.06 1.52,-15.78 1,-23.17 -1.13,-1.03 -1.59,-2.26 -1.39,-3.7 0.2,-1.44 0.69,-2.54 1.46,-3.31 0.77,-0.77 1.62,-0.92 2.54,-0.46 0.93,0.46 1.54,2.03 1.85,4.7zm37.57 78.68c0.72,-2.67 1.67,-5.57 2.85,-8.7 1.18,-3.13 2.51,-6.11 4,-8.93 1.49,-2.82 3,-5.26 4.54,-7.31 1.54,-2.06 3.03,-3.34 4.46,-3.85 1.23,-0.1 2.36,0.26 3.39,1.08 0.82,-2.67 1.9,-5.16 3.23,-7.47 1.33,-2.31 3.03,-4.29 5.08,-5.93 2.67,-2.05 4.87,-2.85 6.62,-2.39 1.75,0.46 3.08,1.82 4,4.08 0.93,2.26 1.41,5.21 1.46,8.85 0.05,3.65 -0.33,7.57 -1.16,11.78 -0.82,4.21 -2.08,8.55 -3.77,13.01 -1.69,4.46 -3.82,8.65 -6.39,12.55 1.33,2.57 2.72,4.24 4.16,5 1.44,0.77 2.87,0.93 4.31,0.46 1.44,-0.46 2.87,-1.44 4.31,-2.93 1.44,-1.49 2.82,-3.15 4.16,-5 0.51,-0.72 1.05,-1.05 1.62,-1 0.56,0.05 1.05,0.36 1.46,0.93 0.41,0.56 0.62,1.28 0.62,2.15 0,0.87 -0.26,1.72 -0.77,2.54 -1.64,2.46 -3.36,4.49 -5.16,6.08 -1.8,1.59 -3.7,2.62 -5.7,3.08 -2,0.46 -4.08,0.23 -6.24,-0.69 -2.15,-0.93 -4.36,-2.67 -6.62,-5.24 -3.49,4.52 -6.67,7.59 -9.54,9.24 -2.87,1.65 -5.39,2.29 -7.55,1.93 -2.15,-0.36 -3.93,-1.54 -5.31,-3.54 -1.39,-2 -2.33,-4.44 -2.85,-7.31 -1.33,1.33 -2.7,2.49 -4.08,3.46 -1.39,0.98 -2.82,1.57 -4.31,1.77 -1.49,0.2 -2.98,0.02 -4.46,-0.54 -1.49,-0.56 -3,-1.72 -4.54,-3.46 -3.9,4.93 -7.72,8.37 -11.47,10.31 -3.75,1.95 -6.91,2.36 -9.47,1.23 -2.57,-1.13 -4.29,-3.77 -5.16,-7.93 -0.87,-4.16 -0.33,-9.93 1.62,-17.32 0.72,-2.67 1.59,-5.33 2.62,-8 1.03,-2.67 2.18,-5.11 3.46,-7.31 1.28,-2.21 2.62,-4.11 4,-5.7 1.39,-1.59 2.8,-2.64 4.23,-3.16 1.23,-0.1 2.36,0.26 3.39,1.08 0.82,-2.67 1.9,-5.16 3.23,-7.47 1.33,-2.31 3.03,-4.28 5.08,-5.93 2.67,-2.06 4.93,-2.93 6.78,-2.62 1.85,0.31 3.29,1.49 4.31,3.54 1.03,2.06 1.62,4.75 1.77,8.08 0.15,3.34 -0.13,7.01 -0.85,11.01 -0.72,4 -1.87,8.16 -3.46,12.47 -1.59,4.31 -3.67,8.42 -6.24,12.32 0.93,1.85 1.95,3 3.08,3.46 1.13,0.46 2.26,0.46 3.39,0 1.13,-0.46 2.28,-1.31 3.46,-2.54 1.18,-1.23 2.33,-2.62 3.46,-4.16 0.1,-1.64 0.41,-3.33 0.92,-5.08zm-33.26 4.62c-1.44,5.23 -2.06,9 -1.85,11.31 0.21,2.31 0.93,3.49 2.16,3.54 1.23,0.05 2.9,-0.82 5,-2.62 2.1,-1.8 4.34,-4.19 6.7,-7.16 -1.74,-2.77 -3.05,-6.21 -3.93,-10.31 -0.87,-4.11 -1.2,-8.37 -1,-12.78 -1.64,3.08 -2.98,5.93 -4,8.54 -1.03,2.62 -2.06,5.78 -3.08,9.47zm42.65 0c-0.62,2.05 -0.93,4.16 -0.93,6.31 0,2.16 0.41,3.7 1.23,4.62 0.82,0.93 2.16,0.95 4,0.08 1.85,-0.87 4.41,-3.36 7.7,-7.47 -0.82,-1.33 -1.49,-3.06 -2,-5.16 -0.51,-2.11 -0.87,-4.34 -1.08,-6.7 -0.2,-2.36 -0.33,-4.8 -0.39,-7.31 -0.05,-2.52 -0.02,-4.85 0.08,-7 -1.64,3.08 -3.23,6.7 -4.77,10.85 -1.54,4.16 -2.82,8.08 -3.85,11.78zm25.09 -34.95c-1.54,1.54 -2.95,3.62 -4.23,6.24 -1.28,2.62 -2.31,5.41 -3.08,8.39 -0.77,2.98 -1.28,5.93 -1.54,8.85 -0.26,2.93 -0.08,5.52 0.54,7.78 1.23,-2.36 2.44,-5 3.62,-7.93 1.18,-2.93 2.2,-5.85 3.08,-8.78 0.87,-2.93 1.49,-5.67 1.85,-8.24 0.36,-2.56 0.28,-4.67 -0.23,-6.31zm-44.19 4.62c-1.54,1.54 -2.87,3.46 -4,5.78 -1.13,2.31 -2,4.75 -2.61,7.31 -0.62,2.57 -0.95,5.16 -1,7.78 -0.05,2.62 0.23,5.06 0.85,7.31 1.23,-2.36 2.36,-4.85 3.39,-7.47 1.03,-2.62 1.87,-5.18 2.54,-7.7 0.67,-2.52 1.11,-4.9 1.31,-7.16 0.2,-2.26 0.05,-4.21 -0.46,-5.85zm112.86 -13.24c2.15,-4.62 4.49,-8.96 7,-13.01 2.52,-4.06 5.08,-7.62 7.7,-10.7 2.62,-3.08 5.29,-5.57 8,-7.47 2.72,-1.9 5.31,-2.95 7.78,-3.15 2.16,-0.21 3.8,0.18 4.93,1.15 1.13,0.98 1.87,2.26 2.23,3.85 0.36,1.59 0.44,3.36 0.23,5.31 -0.2,1.95 -0.57,3.75 -1.08,5.39 -1.23,3.8 -3.36,8.16 -6.39,13.09 -3.03,4.93 -6.39,9.88 -10.09,14.86 -3.69,4.98 -7.41,9.7 -11.16,14.17 -3.75,4.46 -6.96,8.13 -9.62,11.01 -1.54,4.93 -2.85,9.26 -3.93,13.01 -1.07,3.75 -1.87,7.06 -2.39,9.93 -0.51,2.87 -0.74,5.37 -0.69,7.47 0.05,2.11 0.33,3.98 0.85,5.62 0.72,2.46 1.95,3.74 3.7,3.85 1.74,0.1 3.72,-0.51 5.93,-1.85 2.2,-1.33 4.49,-3.18 6.85,-5.54 2.36,-2.36 4.62,-4.82 6.78,-7.39 2.15,-2.57 4.08,-4.98 5.77,-7.24 1.69,-2.26 2.85,-3.9 3.46,-4.93 0.62,-1.02 1.23,-1.59 1.85,-1.69 0.62,-0.1 1.16,0.08 1.62,0.54 0.46,0.46 0.72,1.1 0.77,1.93 0.05,0.82 -0.13,1.59 -0.54,2.31 -1.03,1.75 -2.44,3.9 -4.24,6.47 -1.8,2.57 -3.85,5.21 -6.16,7.93 -2.31,2.72 -4.82,5.34 -7.54,7.85 -2.72,2.51 -5.52,4.64 -8.39,6.39 -2.87,1.74 -5.77,2.9 -8.7,3.46 -2.93,0.56 -5.78,0.23 -8.55,-1 -3.28,-1.44 -5.41,-3.93 -6.39,-7.46 -0.98,-3.54 -1.2,-7.72 -0.69,-12.55 -2.36,3.18 -4.98,6.44 -7.85,9.78 -2.88,3.33 -5.93,6.21 -9.16,8.62 -3.24,2.41 -6.49,4.13 -9.78,5.16 -3.28,1.03 -6.46,0.87 -9.55,-0.46 -3.49,-1.54 -5.72,-4.31 -6.7,-8.31 -0.97,-4 -1.15,-8.62 -0.54,-13.86 0.62,-5.24 1.82,-10.83 3.62,-16.78 1.8,-5.95 3.72,-11.65 5.78,-17.09 2.05,-5.44 4.06,-10.31 6,-14.63 1.95,-4.31 3.39,-7.44 4.31,-9.39 2.16,-4.62 4.49,-8.96 7.01,-13.01 2.51,-4.05 5.08,-7.62 7.7,-10.7 2.62,-3.08 5.29,-5.57 8.01,-7.46 2.72,-1.9 5.31,-2.95 7.78,-3.16 2.15,-0.2 3.8,0.18 4.93,1.15 1.13,0.98 1.87,2.26 2.23,3.85 0.36,1.59 0.44,3.36 0.23,5.31 -0.2,1.95 -0.56,3.75 -1.08,5.39 -1.23,3.8 -3.36,8.16 -6.39,13.09 -3.03,4.93 -6.39,9.88 -10.08,14.86 -3.7,4.98 -7.42,9.7 -11.17,14.17 -3.74,4.46 -6.95,8.13 -9.62,11.01 -1.54,4.93 -2.77,9.19 -3.7,12.78 -0.92,3.59 -1.54,6.72 -1.85,9.39 -0.31,2.67 -0.36,4.98 -0.15,6.93 0.2,1.95 0.56,3.75 1.08,5.39 0.72,2.26 1.82,3.46 3.31,3.62 1.49,0.15 3.19,-0.39 5.08,-1.62 1.9,-1.23 3.95,-2.95 6.16,-5.16 2.21,-2.21 4.34,-4.57 6.39,-7.08 2.06,-2.52 3.95,-4.98 5.7,-7.39 1.75,-2.41 3.19,-4.44 4.31,-6.08 1.23,-5.03 2.74,-10.14 4.54,-15.32 1.8,-5.19 3.65,-10.04 5.54,-14.55 1.9,-4.52 3.67,-8.55 5.31,-12.09 1.64,-3.54 2.87,-6.19 3.7,-7.93zm33.26 -25.41c-1.95,0 -4.23,1.41 -6.85,4.23 -2.62,2.82 -5.34,6.57 -8.16,11.24 -2.82,4.67 -5.57,9.93 -8.24,15.78 -2.67,5.85 -5.08,11.75 -7.24,17.7 3.28,-3.9 6.83,-8.36 10.62,-13.39 3.8,-5.03 7.24,-9.93 10.32,-14.7 3.08,-4.77 5.57,-9.06 7.46,-12.85 1.9,-3.8 2.59,-6.47 2.08,-8.01zm-44.96 4.62c-1.95,0 -4.24,1.41 -6.85,4.24 -2.61,2.82 -5.33,6.57 -8.16,11.24 -2.82,4.67 -5.57,9.93 -8.24,15.78 -2.67,5.85 -5.08,11.76 -7.24,17.71 3.28,-3.9 6.83,-8.37 10.63,-13.4 3.8,-5.03 7.24,-9.93 10.31,-14.7 3.08,-4.77 5.57,-9.06 7.47,-12.85 1.9,-3.8 2.59,-6.47 2.08,-8.01zm89.46 64.2c0.72,-0.82 1.44,-1.31 2.15,-1.46 0.72,-0.15 1.33,-0.05 1.85,0.31 0.51,0.36 0.82,0.87 0.92,1.54 0.1,0.67 -0.15,1.41 -0.77,2.23 -1.54,2.06 -3.41,4.39 -5.62,7.01 -2.2,2.62 -4.59,5.31 -7.16,8.08 -2.57,2.77 -5.26,5.54 -8.09,8.31 -2.82,2.77 -5.67,5.34 -8.54,7.7 -4.52,14.47 -8.93,25.89 -13.24,34.26 -4.31,8.37 -8.26,14.5 -11.86,18.4 -2.98,3.08 -5.9,4.95 -8.78,5.62 -2.87,0.67 -5.39,0.31 -7.54,-1.08 -2.16,-1.39 -3.72,-3.67 -4.7,-6.85 -0.98,-3.19 -1.05,-7.03 -0.23,-11.55 0.93,-5.24 2.59,-9.73 5,-13.47 2.41,-3.75 5.19,-7.08 8.31,-10.01 3.13,-2.93 6.44,-5.59 9.93,-8.01 3.49,-2.41 6.83,-4.85 10.01,-7.31 1.85,-4.52 3.31,-8.24 4.39,-11.16 1.08,-2.93 1.95,-5.34 2.62,-7.24 0.67,-1.9 1.18,-3.36 1.54,-4.39 0.36,-1.03 0.64,-1.85 0.85,-2.46 -1.33,1.95 -2.87,3.8 -4.62,5.54 -1.74,1.75 -3.57,3.16 -5.46,4.24 -1.9,1.08 -3.8,1.69 -5.7,1.85 -1.9,0.15 -3.67,-0.33 -5.31,-1.46 -2.15,-1.44 -3.36,-3.98 -3.62,-7.62 -0.26,-3.65 0.21,-7.62 1.39,-11.93 1.18,-4.31 2.85,-8.62 5,-12.93 2.16,-4.31 4.52,-7.96 7.08,-10.93 0.93,-0.72 1.8,-1 2.62,-0.85 0.82,0.15 1.52,0.59 2.08,1.31 0.57,0.72 1.03,1.57 1.39,2.54 0.36,0.97 0.59,1.87 0.69,2.69 -1.44,2.36 -2.85,5.16 -4.23,8.39 -1.39,3.24 -2.54,6.44 -3.46,9.63 -0.93,3.18 -1.49,6.11 -1.69,8.78 -0.21,2.67 0.2,4.62 1.23,5.85 5.03,-3.28 9,-7.16 11.93,-11.63 2.93,-4.46 5.39,-8.98 7.39,-13.55 2,-4.57 3.85,-8.91 5.54,-13.01 1.7,-4.11 3.83,-7.49 6.39,-10.16 0.92,-0.82 2,-0.8 3.23,0.07 1.23,0.87 1.9,1.87 2,3 -0.82,2.06 -1.77,4.65 -2.85,7.78 -1.08,3.13 -2.33,6.95 -3.77,11.47 -1.44,4.52 -3.06,9.78 -4.85,15.78 -1.8,6.01 -3.78,12.86 -5.93,20.56 1.74,-1.44 3.7,-3.23 5.85,-5.39 2.16,-2.16 4.29,-4.37 6.39,-6.62 2.11,-2.26 4.06,-4.44 5.85,-6.54 1.8,-2.11 3.26,-3.88 4.39,-5.31zm-41.42 42.65c-3.29,2.15 -6.49,4.49 -9.63,7 -3.13,2.52 -5.85,5.31 -8.16,8.39 -2.31,3.08 -4.06,6.55 -5.24,10.39 -1.18,3.85 -1.41,8.13 -0.69,12.86 2.26,-2.26 4.36,-4.52 6.31,-6.78 1.95,-2.26 3.83,-4.85 5.62,-7.78 1.8,-2.93 3.64,-6.31 5.54,-10.16 1.9,-3.85 3.98,-8.5 6.24,-13.93z"/>
  <path class="fil0" d="M159.51 103.83c-2.36,3.28 -4.98,6.59 -7.85,9.93 -2.87,3.34 -5.77,6.37 -8.7,9.09 -2.93,2.72 -5.7,4.93 -8.31,6.62 -2.62,1.7 -4.8,2.54 -6.55,2.54 -2.26,0 -3.93,-0.67 -5,-2 -1.07,-1.33 -1.77,-2.98 -2.07,-4.93 -0.31,-1.95 -0.31,-4.08 0,-6.39 0.31,-2.31 0.72,-4.39 1.23,-6.24 -1.23,1.23 -2.59,2.62 -4.08,4.16 -1.49,1.54 -3,2.98 -4.54,4.31 -1.54,1.33 -3.1,2.44 -4.7,3.31 -1.59,0.87 -3.15,1.31 -4.69,1.31 -4.31,0 -7.37,-0.98 -9.16,-2.93 -1.8,-1.95 -2.7,-4.44 -2.7,-7.47 0,-3.03 0.64,-6.41 1.93,-10.16 1.28,-3.74 2.87,-7.39 4.78,-10.93 1.9,-3.54 3.87,-6.77 5.93,-9.7 2.06,-2.93 3.8,-5.16 5.24,-6.7 0.51,-0.82 1.2,-1.36 2.08,-1.61 0.87,-0.26 1.77,-0.26 2.69,0 0.93,0.26 1.72,0.72 2.39,1.39 0.67,0.67 1,1.51 1,2.54 -1.23,3.28 -2.67,6.65 -4.31,10.09 -1.65,3.44 -3.16,6.9 -4.54,10.39 -1.39,3.49 -2.44,6.88 -3.16,10.17 -2.97,13.59 2.83,8.07 9.16,1.85 3.13,-3.08 6.06,-6.37 8.78,-9.85 2.72,-3.49 5.16,-7.06 7.31,-10.7 2.16,-3.65 3.8,-6.95 4.93,-9.93 0.31,-0.92 0.85,-1.61 1.61,-2.08 0.77,-0.46 1.59,-0.67 2.46,-0.61 0.87,0.05 1.69,0.33 2.46,0.85 0.77,0.52 1.31,1.23 1.61,2.16 -0.1,3.59 -0.9,7.31 -2.39,11.16 -1.49,3.85 -3,7.62 -4.54,11.31 -1.54,3.7 -2.85,7.19 -3.93,10.47 -1.08,3.28 -1.31,6.21 -0.69,8.78 1.85,-1.23 3.77,-2.74 5.78,-4.54 2,-1.8 4,-3.72 6,-5.77 2,-2.06 3.93,-4.16 5.77,-6.31 1.85,-2.15 3.49,-4.26 4.93,-6.31 1.03,-1.33 1.93,-2.13 2.69,-2.39 0.77,-0.26 1.36,-0.15 1.77,0.31 0.41,0.46 0.59,1.15 0.54,2.08 -0.05,0.93 -0.44,1.85 -1.15,2.77zm-120.56 -18.02c0.72,1.23 0.64,2.18 -0.23,2.85 -0.87,0.67 -2.33,0.59 -4.39,-0.23 -3.9,-5.03 -6.16,-9.67 -6.77,-13.93 -0.62,-4.26 -0.08,-8.16 1.61,-11.7 1.69,-3.54 4.31,-6.85 7.85,-9.93 3.54,-3.08 7.57,-5.98 12.09,-8.7 4.52,-2.72 9.31,-5.31 14.39,-7.78 5.08,-2.46 10.01,-4.93 14.78,-7.39 4.77,-2.46 9.13,-4.98 13.09,-7.54 3.95,-2.57 7.11,-5.29 9.47,-8.16 0.93,-1.03 1.95,-1.72 3.08,-2.08 1.13,-0.36 2.21,-0.46 3.24,-0.31 1.02,0.15 1.9,0.56 2.62,1.23 0.72,0.67 1.13,1.51 1.23,2.54 -0.82,1.64 -1.85,4.36 -3.08,8.16 -1.23,3.8 -2.67,8.37 -4.31,13.7 -1.64,5.34 -3.49,11.27 -5.54,17.78 -2.05,6.52 -4.31,13.35 -6.77,20.48 -2.46,7.13 -5.16,14.42 -8.09,21.86 -2.93,7.44 -6.03,14.7 -9.31,21.79 4.41,-2.05 8.57,-4.46 12.47,-7.24 3.9,-2.77 7.39,-6.06 10.47,-9.85 0.93,-1.13 1.85,-1.93 2.77,-2.39 0.93,-0.46 1.67,-0.59 2.23,-0.39 0.57,0.2 0.85,0.72 0.85,1.54 0,0.82 -0.52,2 -1.54,3.54 -3.59,5.23 -8.08,9.57 -13.47,13.01 -5.39,3.44 -11.21,6.49 -17.47,9.16 -5.24,10.57 -10.93,20.12 -17.09,28.64 -6.16,8.52 -12.78,15.04 -19.86,19.55 -4.83,3.08 -9.42,4.98 -13.78,5.7 -4.36,0.72 -8.08,0.54 -11.16,-0.54 -3.08,-1.07 -5.34,-2.93 -6.78,-5.54 -1.44,-2.61 -1.61,-5.72 -0.54,-9.31 1.08,-3.59 3.59,-7.57 7.55,-11.93 3.95,-4.37 9.78,-8.85 17.48,-13.47 3.9,-2.26 7.9,-4.26 12.01,-6.01 4.11,-1.74 8.31,-3.44 12.63,-5.08 5.24,-8.93 10.16,-18.14 14.78,-27.64 4.62,-9.5 8.85,-18.73 12.7,-27.72 3.85,-8.98 7.29,-17.48 10.31,-25.48 3.03,-8.01 5.62,-14.99 7.78,-20.94 -4.62,2.57 -9.62,5.08 -15.01,7.54 -5.39,2.46 -10.73,5.03 -16.01,7.7 -5.29,2.67 -10.19,5.52 -14.7,8.54 -4.52,3.03 -8.14,6.34 -10.85,9.93 -2.72,3.59 -4.26,7.52 -4.62,11.78 -0.36,4.26 0.95,9.01 3.93,14.24zm-11.39 58.82c-8.11,5.23 -13.68,9.98 -16.71,14.24 -3.03,4.26 -4.13,7.37 -3.31,9.31 8.31,-2.98 15.58,-7.36 21.79,-13.17 6.21,-5.8 11.78,-12.34 16.71,-19.63 -3.39,1.44 -6.65,2.9 -9.78,4.39 -3.13,1.49 -6.03,3.1 -8.7,4.85zm138.26 -14.17c1.95,0.51 3.49,0.15 4.62,-1.08 1.13,-1.23 2,-2.72 2.62,-4.46 -0.72,0.2 -1.41,0.36 -2.08,0.46 -0.67,0.1 -1.41,0.2 -2.23,0.31 -2.77,0.41 -4.33,1.21 -4.7,2.39 -0.36,1.18 0.23,1.98 1.77,2.39zm16.48 -54.04c0.41,4.41 0.92,8.36 1.54,11.85 0.61,3.49 1.2,6.75 1.77,9.78 0.56,3.03 1.07,5.85 1.54,8.47 0.46,2.62 0.74,5.21 0.85,7.78 3.49,-1.64 6.57,-3.49 9.24,-5.54 2.67,-2.05 4.98,-4.57 6.93,-7.54 0.72,-1.03 1.41,-1.57 2.08,-1.62 0.67,-0.05 1.2,0.21 1.62,0.77 0.41,0.56 0.64,1.28 0.69,2.15 0.05,0.87 -0.18,1.67 -0.69,2.39 -2.67,3.59 -5.67,6.67 -9.01,9.24 -3.33,2.57 -7.06,4.72 -11.16,6.47 -0.21,1.85 -0.64,3.59 -1.31,5.23 -0.67,1.65 -1.56,3.13 -2.69,4.46 -1.64,1.95 -3.59,3.49 -5.85,4.62 -2.26,1.13 -4.36,1.8 -6.31,2 -3.8,0.51 -6.88,0.05 -9.24,-1.39 -2.36,-1.44 -3.83,-3.16 -4.39,-5.16 -0.56,-2 -0.13,-4 1.31,-6 1.44,-2 4,-3.36 7.7,-4.08 1.33,-0.2 2.62,-0.46 3.85,-0.77 1.23,-0.31 2.41,-0.57 3.54,-0.77 0.51,-5.03 0.49,-10.39 -0.07,-16.09 -0.57,-5.7 -1.26,-10.86 -2.08,-15.48 -1.54,2.36 -3.39,5.03 -5.54,8.01 -2.16,2.98 -4.98,6.78 -8.47,11.39 -0.82,1.03 -1.57,1.54 -2.23,1.54 -0.67,0 -1.21,-0.26 -1.62,-0.77 -0.41,-0.51 -0.64,-1.18 -0.69,-2 -0.05,-0.82 0.18,-1.54 0.69,-2.16 1.64,-2.05 4,-5.13 7.08,-9.24 3.08,-4.11 6.21,-8.62 9.39,-13.55 -0.31,-1.74 -0.31,-3.77 0,-6.08 0.31,-2.31 0.92,-4.54 1.85,-6.7 0.93,-2.15 2.18,-4.08 3.77,-5.77 1.59,-1.69 3.46,-2.8 5.62,-3.31 3.9,-0.93 6.11,-0.26 6.62,2 0.52,2.26 -0.51,5.08 -3.08,8.47 -1.03,1.33 -1.85,2.54 -2.46,3.62 -0.61,1.08 -0.87,2.34 -0.77,3.78zm57.58 -33.41c4.42,-0.51 8.7,-1 12.86,-1.46 4.16,-0.46 8.39,-0.43 12.7,0.08 4,0.41 6.93,1.81 8.63,4.31 1.68,2.46 1.56,5.29 0,8.47 -0.41,0.72 -0.93,1.2 -1.54,1.46 -0.61,0.26 -1.18,0.26 -1.69,0 -0.51,-0.26 -1.61,-0.86 -1.15,-1.46 0.29,-0.39 0.5,-2.03 0.42,-4.15 -0.55,-2.62 -1.67,-2.47 -4.01,-3.12 -2.35,-0.65 -5.47,-0.74 -8.65,-0.74 -3.19,0 -6.49,0.23 -9.93,0.69 -3.44,0.46 -6.39,0.85 -8.85,1.16 -1.95,6.77 -4.39,13.68 -7.31,20.71 -2.93,7.03 -5.85,14.06 -8.78,21.09 -2.93,7.03 -5.57,13.96 -7.93,20.78 -2.36,6.83 -3.95,13.32 -4.78,19.48 3.28,-2.46 6.54,-5.11 9.78,-7.93 3.23,-2.82 6.31,-5.7 9.24,-8.62 2.93,-2.93 5.57,-5.8 7.93,-8.62 2.36,-2.82 4.36,-5.36 6,-7.62 0.82,-1.23 1.57,-1.87 2.24,-1.92 0.67,-0.05 1.2,0.2 1.61,0.77 0.41,0.56 0.62,1.28 0.62,2.16 0,0.87 -0.21,1.61 -0.62,2.23 -2.46,3.59 -5.26,7.16 -8.39,10.7 -3.13,3.54 -6.39,6.95 -9.78,10.24 -3.39,3.29 -6.77,6.31 -10.16,9.09 -3.39,2.77 -6.57,5.18 -9.55,7.24 -1.85,1.23 -3.54,1.8 -5.08,1.69 -1.54,-0.1 -2.85,-0.64 -3.93,-1.62 -1.08,-0.97 -1.9,-2.33 -2.46,-4.08 -0.57,-1.74 -0.74,-3.7 -0.54,-5.85 0.61,-5.65 2.1,-11.75 4.46,-18.32 2.36,-6.57 5.13,-13.29 8.31,-20.17 3.18,-6.88 6.52,-13.78 10.01,-20.71 3.49,-6.93 6.57,-13.57 9.24,-19.94 -6.47,0.41 -12.11,0.39 -16.94,-0.07 -4.83,-0.46 -9.04,-1.87 -12.63,-4.24 -1.75,-1.23 -2.67,-2.31 -2.77,-3.23 -0.1,-0.93 0.18,-1.59 0.85,-2 0.67,-0.41 1.46,-0.52 2.39,-0.31 0.93,0.2 1.64,0.77 2.16,1.7 3.18,2.36 7.29,3.59 12.31,3.69 5.03,0.1 10.52,-0.1 16.48,-0.61 0.51,-1.13 1,-2.36 1.46,-3.7 0.46,-1.33 0.85,-2.62 1.16,-3.85 0.2,-1.23 0.74,-1.9 1.61,-2 0.87,-0.1 1.8,0.1 2.77,0.61 0.98,0.52 1.8,1.21 2.46,2.08 0.67,0.87 0.9,1.67 0.69,2.39l-0.93 3.54z"/>
 </g>
</svg>
